<svg width="75" height="150" viewBox="0 0 75 150" fill="none" xmlns="http://www.w3.org/2000/svg">
<ellipse cx="3.21622" cy="145" rx="5" ry="4.48649" transform="rotate(-90 3.21622 145)" fill="#009EED"/>
<ellipse cx="3.21622" cy="125" rx="5" ry="4.48649" transform="rotate(-90 3.21622 125)" fill="#009EED"/>
<ellipse cx="25.6486" cy="145" rx="5" ry="4.48649" transform="rotate(-90 25.6486 145)" fill="#009EED"/>
<ellipse cx="25.6486" cy="125" rx="5" ry="4.48649" transform="rotate(-90 25.6486 125)" fill="#009EED"/>
<ellipse cx="3.21622" cy="105" rx="5" ry="4.48649" transform="rotate(-90 3.21622 105)" fill="#009EED"/>
<ellipse cx="3.21622" cy="85" rx="5" ry="4.48649" transform="rotate(-90 3.21622 85)" fill="#009EED"/>
<ellipse cx="25.6486" cy="105" rx="5" ry="4.48649" transform="rotate(-90 25.6486 105)" fill="#009EED"/>
<ellipse cx="25.6486" cy="85" rx="5" ry="4.48649" transform="rotate(-90 25.6486 85)" fill="#009EED"/>
<ellipse cx="3.21622" cy="65" rx="5" ry="4.48649" transform="rotate(-90 3.21622 65)" fill="#009EED"/>
<ellipse cx="3.21622" cy="45" rx="5" ry="4.48649" transform="rotate(-90 3.21622 45)" fill="#009EED"/>
<ellipse cx="25.6486" cy="65" rx="5" ry="4.48649" transform="rotate(-90 25.6486 65)" fill="#009EED"/>
<ellipse cx="25.6486" cy="45" rx="5" ry="4.48649" transform="rotate(-90 25.6486 45)" fill="#009EED"/>
<ellipse cx="3.21622" cy="25" rx="5" ry="4.48649" transform="rotate(-90 3.21622 25)" fill="#009EED"/>
<ellipse cx="3.21622" cy="5" rx="5" ry="4.48649" transform="rotate(-90 3.21622 5)" fill="#009EED"/>
<ellipse cx="25.6486" cy="25" rx="5" ry="4.48649" transform="rotate(-90 25.6486 25)" fill="#009EED"/>
<ellipse cx="25.6486" cy="5" rx="5" ry="4.48649" transform="rotate(-90 25.6486 5)" fill="#009EED"/>
<ellipse cx="48.081" cy="145" rx="5" ry="4.48649" transform="rotate(-90 48.081 145)" fill="#009EED"/>
<ellipse cx="48.081" cy="125" rx="5" ry="4.48649" transform="rotate(-90 48.081 125)" fill="#009EED"/>
<ellipse cx="70.5136" cy="145" rx="5" ry="4.48649" transform="rotate(-90 70.5136 145)" fill="#009EED"/>
<ellipse cx="70.5136" cy="125" rx="5" ry="4.48649" transform="rotate(-90 70.5136 125)" fill="#009EED"/>
<ellipse cx="48.081" cy="105" rx="5" ry="4.48649" transform="rotate(-90 48.081 105)" fill="#009EED"/>
<ellipse cx="48.081" cy="85" rx="5" ry="4.48649" transform="rotate(-90 48.081 85)" fill="#009EED"/>
<ellipse cx="70.5136" cy="105" rx="5" ry="4.48649" transform="rotate(-90 70.5136 105)" fill="#009EED"/>
<ellipse cx="70.5136" cy="85" rx="5" ry="4.48649" transform="rotate(-90 70.5136 85)" fill="#009EED"/>
<ellipse cx="48.081" cy="65" rx="5" ry="4.48649" transform="rotate(-90 48.081 65)" fill="#009EED"/>
<ellipse cx="48.081" cy="45" rx="5" ry="4.48649" transform="rotate(-90 48.081 45)" fill="#009EED"/>
<ellipse cx="70.5136" cy="65" rx="5" ry="4.48649" transform="rotate(-90 70.5136 65)" fill="#009EED"/>
<ellipse cx="70.5136" cy="45" rx="5" ry="4.48649" transform="rotate(-90 70.5136 45)" fill="#009EED"/>
<ellipse cx="48.081" cy="25" rx="5" ry="4.48649" transform="rotate(-90 48.081 25)" fill="#009EED"/>
<ellipse cx="48.081" cy="5" rx="5" ry="4.48649" transform="rotate(-90 48.081 5)" fill="#009EED"/>
<ellipse cx="70.5136" cy="25" rx="5" ry="4.48649" transform="rotate(-90 70.5136 25)" fill="#009EED"/>
<ellipse cx="70.5136" cy="5" rx="5" ry="4.48649" transform="rotate(-90 70.5136 5)" fill="#009EED"/>
</svg>
