<svg width="166" height="150" viewBox="0 0 166 150" fill="none" xmlns="http://www.w3.org/2000/svg">
<ellipse cx="4.48649" cy="145" rx="5" ry="4.48649" transform="rotate(-90 4.48649 145)" fill="#009EED"/>
<ellipse cx="4.48649" cy="125" rx="5" ry="4.48649" transform="rotate(-90 4.48649 125)" fill="#009EED"/>
<ellipse cx="26.9189" cy="145" rx="5" ry="4.48649" transform="rotate(-90 26.9189 145)" fill="#009EED"/>
<ellipse cx="26.9189" cy="125" rx="5" ry="4.48649" transform="rotate(-90 26.9189 125)" fill="#009EED"/>
<ellipse cx="4.48649" cy="105" rx="5" ry="4.48649" transform="rotate(-90 4.48649 105)" fill="#009EED"/>
<ellipse cx="4.48649" cy="85" rx="5" ry="4.48649" transform="rotate(-90 4.48649 85)" fill="#009EED"/>
<ellipse cx="26.9189" cy="105" rx="5" ry="4.48649" transform="rotate(-90 26.9189 105)" fill="#009EED"/>
<ellipse cx="26.9189" cy="85" rx="5" ry="4.48649" transform="rotate(-90 26.9189 85)" fill="#009EED"/>
<ellipse cx="4.48649" cy="65" rx="5" ry="4.48649" transform="rotate(-90 4.48649 65)" fill="#009EED"/>
<ellipse cx="4.48649" cy="45" rx="5" ry="4.48649" transform="rotate(-90 4.48649 45)" fill="#009EED"/>
<ellipse cx="26.9189" cy="65" rx="5" ry="4.48649" transform="rotate(-90 26.9189 65)" fill="#009EED"/>
<ellipse cx="26.9189" cy="45" rx="5" ry="4.48649" transform="rotate(-90 26.9189 45)" fill="#009EED"/>
<ellipse cx="4.48649" cy="25" rx="5" ry="4.48649" transform="rotate(-90 4.48649 25)" fill="#009EED"/>
<ellipse cx="4.48649" cy="5" rx="5" ry="4.48649" transform="rotate(-90 4.48649 5)" fill="#009EED"/>
<ellipse cx="26.9189" cy="25" rx="5" ry="4.48649" transform="rotate(-90 26.9189 25)" fill="#009EED"/>
<ellipse cx="26.9189" cy="5" rx="5" ry="4.48649" transform="rotate(-90 26.9189 5)" fill="#009EED"/>
<ellipse cx="49.3514" cy="145" rx="5" ry="4.48649" transform="rotate(-90 49.3514 145)" fill="#009EED"/>
<ellipse cx="49.3514" cy="125" rx="5" ry="4.48649" transform="rotate(-90 49.3514 125)" fill="#009EED"/>
<ellipse cx="71.7837" cy="145" rx="5" ry="4.48649" transform="rotate(-90 71.7837 145)" fill="#009EED"/>
<ellipse cx="71.7837" cy="125" rx="5" ry="4.48649" transform="rotate(-90 71.7837 125)" fill="#009EED"/>
<ellipse cx="49.3514" cy="105" rx="5" ry="4.48649" transform="rotate(-90 49.3514 105)" fill="#009EED"/>
<ellipse cx="49.3514" cy="85" rx="5" ry="4.48649" transform="rotate(-90 49.3514 85)" fill="#009EED"/>
<ellipse cx="71.7837" cy="105" rx="5" ry="4.48649" transform="rotate(-90 71.7837 105)" fill="#009EED"/>
<ellipse cx="71.7837" cy="85" rx="5" ry="4.48649" transform="rotate(-90 71.7837 85)" fill="#009EED"/>
<ellipse cx="49.3514" cy="65" rx="5" ry="4.48649" transform="rotate(-90 49.3514 65)" fill="#009EED"/>
<ellipse cx="49.3514" cy="45" rx="5" ry="4.48649" transform="rotate(-90 49.3514 45)" fill="#009EED"/>
<ellipse cx="71.7837" cy="65" rx="5" ry="4.48649" transform="rotate(-90 71.7837 65)" fill="#009EED"/>
<ellipse cx="71.7837" cy="45" rx="5" ry="4.48649" transform="rotate(-90 71.7837 45)" fill="#009EED"/>
<ellipse cx="49.3514" cy="25" rx="5" ry="4.48649" transform="rotate(-90 49.3514 25)" fill="#009EED"/>
<ellipse cx="49.3514" cy="5" rx="5" ry="4.48649" transform="rotate(-90 49.3514 5)" fill="#009EED"/>
<ellipse cx="71.7837" cy="25" rx="5" ry="4.48649" transform="rotate(-90 71.7837 25)" fill="#009EED"/>
<ellipse cx="71.7837" cy="5" rx="5" ry="4.48649" transform="rotate(-90 71.7837 5)" fill="#009EED"/>
<ellipse cx="94.2162" cy="145" rx="5" ry="4.48649" transform="rotate(-90 94.2162 145)" fill="#009EED"/>
<ellipse cx="94.2162" cy="125" rx="5" ry="4.48649" transform="rotate(-90 94.2162 125)" fill="#009EED"/>
<ellipse cx="116.649" cy="145" rx="5" ry="4.48649" transform="rotate(-90 116.649 145)" fill="#009EED"/>
<ellipse cx="116.649" cy="125" rx="5" ry="4.48649" transform="rotate(-90 116.649 125)" fill="#009EED"/>
<ellipse cx="94.2162" cy="105" rx="5" ry="4.48649" transform="rotate(-90 94.2162 105)" fill="#009EED"/>
<ellipse cx="94.2162" cy="85" rx="5" ry="4.48649" transform="rotate(-90 94.2162 85)" fill="#009EED"/>
<ellipse cx="116.649" cy="105" rx="5" ry="4.48649" transform="rotate(-90 116.649 105)" fill="#009EED"/>
<ellipse cx="116.649" cy="85" rx="5" ry="4.48649" transform="rotate(-90 116.649 85)" fill="#009EED"/>
<ellipse cx="94.2162" cy="65" rx="5" ry="4.48649" transform="rotate(-90 94.2162 65)" fill="#009EED"/>
<ellipse cx="94.2162" cy="45" rx="5" ry="4.48649" transform="rotate(-90 94.2162 45)" fill="#009EED"/>
<ellipse cx="116.649" cy="65" rx="5" ry="4.48649" transform="rotate(-90 116.649 65)" fill="#009EED"/>
<ellipse cx="116.649" cy="45" rx="5" ry="4.48649" transform="rotate(-90 116.649 45)" fill="#009EED"/>
<ellipse cx="94.2162" cy="25" rx="5" ry="4.48649" transform="rotate(-90 94.2162 25)" fill="#009EED"/>
<ellipse cx="94.2162" cy="5" rx="5" ry="4.48649" transform="rotate(-90 94.2162 5)" fill="#009EED"/>
<ellipse cx="116.649" cy="25" rx="5" ry="4.48649" transform="rotate(-90 116.649 25)" fill="#009EED"/>
<ellipse cx="116.649" cy="5" rx="5" ry="4.48649" transform="rotate(-90 116.649 5)" fill="#009EED"/>
<ellipse cx="139.081" cy="145" rx="5" ry="4.48649" transform="rotate(-90 139.081 145)" fill="#009EED"/>
<ellipse cx="139.081" cy="125" rx="5" ry="4.48649" transform="rotate(-90 139.081 125)" fill="#009EED"/>
<ellipse cx="161.513" cy="145" rx="5" ry="4.48649" transform="rotate(-90 161.513 145)" fill="#009EED"/>
<ellipse cx="161.513" cy="125" rx="5" ry="4.48649" transform="rotate(-90 161.513 125)" fill="#009EED"/>
<ellipse cx="139.081" cy="105" rx="5" ry="4.48649" transform="rotate(-90 139.081 105)" fill="#009EED"/>
<ellipse cx="139.081" cy="85" rx="5" ry="4.48649" transform="rotate(-90 139.081 85)" fill="#009EED"/>
<ellipse cx="161.513" cy="105" rx="5" ry="4.48649" transform="rotate(-90 161.513 105)" fill="#009EED"/>
<ellipse cx="161.513" cy="85" rx="5" ry="4.48649" transform="rotate(-90 161.513 85)" fill="#009EED"/>
<ellipse cx="139.081" cy="65" rx="5" ry="4.48649" transform="rotate(-90 139.081 65)" fill="#009EED"/>
<ellipse cx="139.081" cy="45" rx="5" ry="4.48649" transform="rotate(-90 139.081 45)" fill="#009EED"/>
<ellipse cx="161.513" cy="65" rx="5" ry="4.48649" transform="rotate(-90 161.513 65)" fill="#009EED"/>
<ellipse cx="161.513" cy="45" rx="5" ry="4.48649" transform="rotate(-90 161.513 45)" fill="#009EED"/>
<ellipse cx="139.081" cy="25" rx="5" ry="4.48649" transform="rotate(-90 139.081 25)" fill="#009EED"/>
<ellipse cx="139.081" cy="5" rx="5" ry="4.48649" transform="rotate(-90 139.081 5)" fill="#009EED"/>
<ellipse cx="161.513" cy="25" rx="5" ry="4.48649" transform="rotate(-90 161.513 25)" fill="#009EED"/>
<ellipse cx="161.513" cy="5" rx="5" ry="4.48649" transform="rotate(-90 161.513 5)" fill="#009EED"/>
</svg>
